<?xml version="1.0" standalone="no"?><!DOCTYPE svg PUBLIC "-//W3C//DTD SVG 1.1//EN" "http://www.w3.org/Graphics/SVG/1.1/DTD/svg11.dtd"><svg t="1703756761640" class="icon" viewBox="0 0 1024 1024" version="1.1" xmlns="http://www.w3.org/2000/svg" p-id="5282" xmlns:xlink="http://www.w3.org/1999/xlink" width="32" height="32"><path d="M809.984 86.528h-596.48c-61.952 0-112.64 50.688-112.64 112.64v625.152c0 61.952 50.688 112.64 112.64 112.64h596.48c62.464 0 112.64-50.176 112.64-112.64V199.168c0-61.952-50.688-112.64-112.64-112.64z m-168.96 717.312h-424.96c-16.896 0-30.72-13.824-30.72-30.72s13.824-30.72 30.72-30.72h424.96c16.896 0 30.72 13.824 30.72 30.72s-13.824 30.72-30.72 30.72z m166.912 0h-89.6c-16.896 0-30.72-13.824-30.72-30.72s13.824-30.72 30.72-30.72h89.6c16.896 0 30.72 13.824 30.72 30.72s-13.824 30.72-30.72 30.72z" fill="" p-id="5283"></path></svg>